<svg width="393" height="50" viewBox="0 0 393 50" fill="none" xmlns="http://www.w3.org/2000/svg">
<path d="M2.6875 3.1875C4.02083 3.22917 5.1875 3.25 6.1875 3.25C7.1875 3.20833 8 3.1875 8.625 3.1875H10.4375C10.8958 3.14583 11.4583 3.125 12.125 3.125C12.7083 3.125 13.4167 3.125 14.25 3.125C15.0833 3.125 16.0417 3.14583 17.125 3.1875C17.4583 4.35417 17.8333 5.5 18.25 6.625C18.7083 7.70833 19.1042 8.6875 19.4375 9.5625C19.8542 10.6042 20.2708 11.5833 20.6875 12.5C21.1042 13.4167 21.6042 14.5208 22.1875 15.8125C22.6875 16.8958 23.2917 18.2292 24 19.8125C24.7083 21.3542 25.5417 23.125 26.5 25.125C26.9583 23.8333 27.375 22.6458 27.75 21.5625C28.1667 20.4792 28.5208 19.5417 28.8125 18.75C29.1458 17.8333 29.4167 17 29.625 16.25C29.8333 15.5 30.0625 14.5833 30.3125 13.5C30.5208 12.5833 30.75 11.4792 31 10.1875C31.2917 8.89583 31.5833 7.39583 31.875 5.6875C33.0833 5.6875 34.1667 5.6875 35.125 5.6875C36.0833 5.6875 36.9167 5.66667 37.625 5.625C38.4167 5.625 39.125 5.60417 39.75 5.5625C40.4167 5.5625 41.3125 5.52083 42.4375 5.4375C43.3958 5.35417 44.6667 5.29167 46.25 5.25C47.875 5.16667 49.875 5.0625 52.25 4.9375C51.375 5.5625 50.6667 6.1875 50.125 6.8125C49.625 7.39583 49.2292 7.91667 48.9375 8.375C48.6042 8.91667 48.3958 9.4375 48.3125 9.9375C48.2292 10.3542 48.1458 11.3125 48.0625 12.8125C48.0208 14.3125 47.9583 16.1042 47.875 18.1875C47.8333 20.2292 47.7917 22.4167 47.75 24.75C47.75 27.0833 47.7708 29.2917 47.8125 31.375C47.8542 33.4583 47.9167 35.2708 48 36.8125C48.125 38.3125 48.2917 39.2708 48.5 39.6875C48.7917 40.1875 49.1875 40.7708 49.6875 41.4375C50.1458 42.0208 50.7292 42.6875 51.4375 43.4375C52.1875 44.1875 53.1667 45.0208 54.375 45.9375C52.4583 46.0208 50.8542 46.0833 49.5625 46.125C48.3125 46.1667 47.2708 46.2083 46.4375 46.25C45.4792 46.2917 44.7083 46.3125 44.125 46.3125C43.5 46.3125 42.6458 46.3333 41.5625 46.375C40.6042 46.4167 39.3333 46.4792 37.75 46.5625C36.1667 46.6042 34.125 46.6875 31.625 46.8125C32.2083 46.1458 32.75 45.4792 33.25 44.8125C33.75 44.1458 34.1667 43.5417 34.5 43C34.9167 42.375 35.2708 41.7708 35.5625 41.1875C35.8542 40.3958 36.0833 38.9583 36.25 36.875C36.4167 35.0833 36.5417 32.5208 36.625 29.1875C36.7083 25.8125 36.7083 21.2917 36.625 15.625C35.8333 16.9167 35.125 18.2083 34.5 19.5C33.9167 20.75 33.3958 21.8958 32.9375 22.9375C32.4375 24.1458 31.9792 25.3125 31.5625 26.4375C31.1458 27.6042 30.7083 28.8958 30.25 30.3125C29.8333 31.5208 29.3333 32.9583 28.75 34.625C28.2083 36.2917 27.5833 38.125 26.875 40.125L24.5 40.25C24.1667 38.5833 23.8333 37.0833 23.5 35.75C23.1667 34.375 22.8333 33.2083 22.5 32.25C22.125 31.125 21.75 30.125 21.375 29.25C20.9583 28.375 20.5 27.3958 20 26.3125C19.5417 25.3958 18.9792 24.3125 18.3125 23.0625C17.6875 21.8125 16.9583 20.4167 16.125 18.875C15.7083 23.125 15.4583 26.5833 15.375 29.25C15.2917 31.875 15.2917 33.9167 15.375 35.375C15.4583 37.125 15.5833 38.3958 15.75 39.1875C16 39.8958 16.3958 40.6875 16.9375 41.5625C17.3958 42.3125 18.0208 43.2083 18.8125 44.25C19.6458 45.25 20.7083 46.375 22 47.625C21.0833 47.625 20.125 47.625 19.125 47.625C18.125 47.625 17.2083 47.6458 16.375 47.6875C15.375 47.7292 14.3958 47.75 13.4375 47.75C12.4375 47.7917 11.2708 47.8542 9.9375 47.9375C8.77083 48.0208 7.375 48.1042 5.75 48.1875C4.125 48.2708 2.25 48.4167 0.125 48.625C1.04167 48.0417 1.79167 47.4792 2.375 46.9375C2.95833 46.3542 3.41667 45.8333 3.75 45.375C4.16667 44.8333 4.47917 44.2917 4.6875 43.75C4.8125 43.4167 4.91667 42.6875 5 41.5625C5.125 40.4375 5.22917 39.0625 5.3125 37.4375C5.4375 35.8125 5.52083 34 5.5625 32C5.64583 30 5.70833 27.9792 5.75 25.9375C5.83333 23.8542 5.89583 21.8333 5.9375 19.875C5.97917 17.875 6 16.0833 6 14.5C6.04167 12.875 6.0625 11.5208 6.0625 10.4375C6.0625 9.35417 6.0625 8.66667 6.0625 8.375C5.9375 7.75 5.75 7.125 5.5 6.5C5.29167 5.95833 4.95833 5.39583 4.5 4.8125C4.04167 4.22917 3.4375 3.6875 2.6875 3.1875ZM68.6875 37.9375C69.8542 37.9375 70.9375 37.8125 71.9375 37.5625C72.7708 37.3542 73.5625 37.0208 74.3125 36.5625C75.1042 36.0625 75.625 35.3333 75.875 34.375C76.7083 34.5417 77.4167 34.6875 78 34.8125C78.5833 34.8958 79.0833 34.9792 79.5 35.0625C79.9583 35.1875 80.3542 35.2708 80.6875 35.3125C81.0208 35.3958 81.4167 35.4792 81.875 35.5625C82.2917 35.6458 82.7917 35.75 83.375 35.875C84 35.9583 84.7292 36.0833 85.5625 36.25C84.9375 36.1667 84.2917 36.2292 83.625 36.4375C83 36.6458 82.3958 36.875 81.8125 37.125C81.1458 37.4167 80.5208 37.7708 79.9375 38.1875C79.5625 38.4375 79.125 38.8125 78.625 39.3125C78.1667 39.8125 77.5 40.2917 76.625 40.75C75.75 41.2083 74.5833 41.6042 73.125 41.9375C71.7083 42.2292 69.875 42.3333 67.625 42.25C64.9167 42.1667 62.6458 41.6875 60.8125 40.8125C58.9792 39.8958 57.5 38.7917 56.375 37.5C55.25 36.1667 54.4375 34.7292 53.9375 33.1875C53.4375 31.6458 53.1667 30.2083 53.125 28.875C53.0833 27.5417 53.4792 26.1458 54.3125 24.6875C55.1458 23.2292 56.3125 21.8958 57.8125 20.6875C59.3542 19.4792 61.2083 18.5 63.375 17.75C65.5417 16.9583 67.9167 16.5625 70.5 16.5625C72 16.5625 73.375 16.75 74.625 17.125C75.9167 17.4583 77.0833 17.9167 78.125 18.5C79.2083 19.0833 80.1458 19.75 80.9375 20.5C81.7292 21.2083 82.3958 21.9375 82.9375 22.6875C83.4792 23.4792 83.9375 24.3125 84.3125 25.1875C84.6458 25.9375 84.9167 26.7917 85.125 27.75C85.3333 28.7083 85.3958 29.6875 85.3125 30.6875C82.1458 30.7708 79.5833 30.8333 77.625 30.875C75.7083 30.9167 74.2083 30.9375 73.125 30.9375H70.3125H68.1875C67.4375 30.9375 66.4583 30.9583 65.25 31C64.0417 31.0417 62.5625 31.1042 60.8125 31.1875C61.0208 32.8542 61.5417 34.1458 62.375 35.0625C63.25 35.9375 64.1667 36.6042 65.125 37.0625C66.2083 37.5625 67.3958 37.8542 68.6875 37.9375ZM63.0625 26.6875C64.3958 26.7708 65.5 26.8333 66.375 26.875C67.2917 26.9167 68.0417 26.9583 68.625 27C69.25 27.0417 69.75 27.0625 70.125 27.0625H71.6875C72.7292 27.0625 74.6667 27 77.5 26.875C77.375 25.0417 76.9792 23.6458 76.3125 22.6875C75.6875 21.7292 75.0208 21.0208 74.3125 20.5625C73.4792 20.0625 72.5625 19.7708 71.5625 19.6875C68.8542 19.7292 66.8333 20.2917 65.5 21.375C64.2083 22.4583 63.3958 24.2292 63.0625 26.6875ZM87.0625 8.625C88.3125 8.75 89.3542 8.85417 90.1875 8.9375C91.0625 9.02083 91.7708 9.08333 92.3125 9.125C92.9375 9.16667 93.4375 9.1875 93.8125 9.1875C94.1875 9.22917 94.6875 9.22917 95.3125 9.1875C95.8542 9.14583 96.5625 9.10417 97.4375 9.0625C98.3125 8.97917 99.4167 8.85417 100.75 8.6875C100.458 9.10417 100.229 9.47917 100.062 9.8125C99.8958 10.1042 99.75 10.375 99.625 10.625L99.25 11.375C99.1667 11.625 99.0833 11.875 99 12.125C98.9167 12.3333 98.8333 12.5833 98.75 12.875C98.7083 13.1667 98.6667 13.4792 98.625 13.8125H108.25L107.375 18.875L98.5625 18.375C98.3542 20.5 98.2083 22.1458 98.125 23.3125C98.0417 24.4792 97.9583 25.3333 97.875 25.875L97.75 27C97.625 28.5833 97.5 30.3125 97.375 32.1875C97.25 34.0208 97.2083 35.7292 97.25 37.3125C97.2917 38.8958 97.4375 40.2292 97.6875 41.3125C97.9375 42.3542 98.375 42.875 99 42.875C99.625 42.875 100.208 42.7083 100.75 42.375C101.292 42.0417 101.75 41.6458 102.125 41.1875C102.542 40.7292 102.854 40.2708 103.062 39.8125C103.271 39.3125 103.375 38.9375 103.375 38.6875C103.375 38.4375 103.312 38.1458 103.188 37.8125C102.979 37.1875 102.604 36.3958 102.062 35.4375C103.271 35.7292 104.333 36.0208 105.25 36.3125C105.708 36.4792 106.125 36.6458 106.5 36.8125C106.917 36.9792 107.396 37.1667 107.938 37.375C108.396 37.5833 108.979 37.8333 109.688 38.125C110.396 38.4167 111.229 38.7708 112.188 39.1875C111.271 39.3542 110.604 39.625 110.188 40C109.938 40.1667 109.75 40.3542 109.625 40.5625C109.333 41.0208 109 41.6458 108.625 42.4375C108.25 43.1875 107.688 43.9375 106.938 44.6875C106.188 45.4375 105.167 46.1042 103.875 46.6875C102.625 47.2708 100.938 47.6042 98.8125 47.6875C96.6042 47.7708 94.9167 47.3958 93.75 46.5625C92.625 45.7292 91.7917 44.7708 91.25 43.6875C90.75 42.5625 90.4583 41.4583 90.375 40.375C90.2917 39.2917 90.2292 38.5625 90.1875 38.1875C90.1458 37.8125 90.1458 36.875 90.1875 35.375C90.2292 33.875 90.2917 32.2292 90.375 30.4375C90.4583 28.6042 90.5417 26.8542 90.625 25.1875C90.7083 23.4792 90.75 22.2292 90.75 21.4375C90.75 21.0208 90.7708 20.5833 90.8125 20.125C90.8125 19.75 90.8125 19.3542 90.8125 18.9375C90.8542 18.4792 90.875 18.0417 90.875 17.625L81.8125 17.5625L81.4375 14L90.5625 14.25C90.4792 13.7917 90.375 13.375 90.25 13C90.1667 12.5833 90.0833 12.25 90 12C89.875 11.7083 89.75 11.4583 89.625 11.25C89.4583 11.0417 89.2708 10.8125 89.0625 10.5625C88.8542 10.3542 88.5833 10.0833 88.25 9.75C87.9167 9.41667 87.5208 9.04167 87.0625 8.625ZM109 18.0625C109.792 18.1042 110.5 18.125 111.125 18.125C111.792 18.0833 112.354 18.0417 112.812 18C113.354 17.9583 113.833 17.9167 114.25 17.875C114.875 17.7917 115.521 17.6875 116.188 17.5625C116.771 17.4792 117.375 17.375 118 17.25C118.667 17.0833 119.312 16.8958 119.938 16.6875C119.688 17.3125 119.479 17.8542 119.312 18.3125C119.146 18.7708 119.021 19.1667 118.938 19.5C118.812 19.875 118.75 20.1875 118.75 20.4375C118.708 20.7292 118.688 21.0833 118.688 21.5C118.646 22.2083 118.646 23.3542 118.688 24.9375C120.854 23.0625 122.667 21.6042 124.125 20.5625C125.625 19.5208 126.812 18.7083 127.688 18.125C128.729 17.4583 129.542 17.0208 130.125 16.8125C131.667 16.5625 133.021 16.9167 134.188 17.875C134.688 18.2917 135.167 18.8542 135.625 19.5625C136.083 20.2292 136.479 21.125 136.812 22.25C137.146 23.375 137.396 24.7292 137.562 26.3125C137.729 27.8542 137.75 29.7083 137.625 31.875C136.75 31.9583 135.958 32.0417 135.25 32.125C134.583 32.2083 134.021 32.2708 133.562 32.3125C133.021 32.3958 132.521 32.4375 132.062 32.4375L130.375 32.625C129.792 32.7083 129.062 32.7917 128.188 32.875C127.354 32.9167 126.333 33 125.125 33.125C126.875 31.7083 128 30.4792 128.5 29.4375C129.042 28.3542 129.271 27.4583 129.188 26.75C129.104 25.9583 128.729 25.2708 128.062 24.6875C127.271 24.2292 126.417 24.0625 125.5 24.1875C124.708 24.2708 123.792 24.625 122.75 25.25C121.708 25.875 120.604 27.0417 119.438 28.75C119.521 31.4167 119.604 33.625 119.688 35.375C119.812 37.125 119.917 38.5417 120 39.625C120.125 40.875 120.229 41.8542 120.312 42.5625C120.438 43.1875 120.688 43.8542 121.062 44.5625C121.354 45.1458 121.771 45.7917 122.312 46.5C122.854 47.2083 123.562 47.9167 124.438 48.625C122.604 48.5417 121.104 48.5417 119.938 48.625C119.229 48.6667 118.604 48.7083 118.062 48.75C117.479 48.8333 116.854 48.9167 116.188 49C115.604 49.0833 114.917 49.1667 114.125 49.25C113.375 49.375 112.542 49.5 111.625 49.625C111.958 49.1667 112.229 48.625 112.438 48C112.646 47.4167 112.812 46.8542 112.938 46.3125C113.104 45.6875 113.229 45.0417 113.312 44.375C113.354 43.7917 113.375 42.9167 113.375 41.75C113.417 40.5833 113.396 39.2708 113.312 37.8125C113.271 36.3125 113.208 34.7708 113.125 33.1875C113.042 31.5625 112.938 30.0417 112.812 28.625C112.688 27.2083 112.542 25.9792 112.375 24.9375C112.25 23.8542 112.104 23.1042 111.938 22.6875C111.729 22.1875 111.479 21.6875 111.188 21.1875C110.938 20.7292 110.625 20.25 110.25 19.75C109.875 19.2083 109.458 18.6458 109 18.0625ZM157 20C158.083 20 159.208 20.2083 160.375 20.625C161.542 21 162.667 21.5 163.75 22.125C164.833 22.7083 165.812 23.3542 166.688 24.0625C167.604 24.7292 168.354 25.375 168.938 26C169.979 27.125 170.688 28.6458 171.062 30.5625C171.479 32.4375 171.562 34.375 171.312 36.375C171.062 38.3333 170.479 40.1875 169.562 41.9375C168.646 43.6875 167.375 44.9792 165.75 45.8125C164.583 46.3958 163.438 46.8542 162.312 47.1875C161.188 47.5208 160.104 47.7708 159.062 47.9375C158.021 48.1042 157.042 48.1875 156.125 48.1875C155.208 48.1875 154.417 48.1667 153.75 48.125C152.5 48.0417 151.188 47.6042 149.812 46.8125C148.479 46.0208 147.208 45.0417 146 43.875C144.833 42.7083 143.833 41.4375 143 40.0625C142.167 38.6458 141.667 37.3125 141.5 36.0625C141.25 34.3542 141.208 32.5625 141.375 30.6875C141.542 28.8125 142.146 27.0833 143.188 25.5C144.271 23.9167 145.896 22.6042 148.062 21.5625C150.271 20.5208 153.25 20 157 20ZM154.938 44.25C155.396 44.3333 156.021 44.2292 156.812 43.9375C157.604 43.6042 158.375 43.0833 159.125 42.375C159.917 41.6667 160.604 40.7708 161.188 39.6875C161.812 38.5625 162.188 37.2083 162.312 35.625C162.438 34.0833 162.438 32.6667 162.312 31.375C162.229 30.0833 162.042 28.9583 161.75 28C161.458 27 161.125 26.1875 160.75 25.5625C160.375 24.9375 159.979 24.5 159.562 24.25C158.854 23.875 158 23.5833 157 23.375C156 23.125 155.146 23.1667 154.438 23.5C154.104 23.6667 153.688 24.0208 153.188 24.5625C152.688 25.1042 152.188 25.7917 151.688 26.625C151.188 27.4167 150.729 28.3333 150.312 29.375C149.938 30.4167 149.667 31.5 149.5 32.625C149.333 33.75 149.292 34.9583 149.375 36.25C149.5 37.5417 149.771 38.7708 150.188 39.9375C150.604 41.0625 151.188 42.0417 151.938 42.875C152.729 43.6667 153.729 44.125 154.938 44.25ZM193.562 3.1875C194.896 3.22917 196.062 3.25 197.062 3.25C198.062 3.20833 198.875 3.1875 199.5 3.1875H201.312C201.771 3.14583 202.333 3.125 203 3.125C203.583 3.125 204.292 3.125 205.125 3.125C205.958 3.125 206.917 3.14583 208 3.1875C208.333 4.35417 208.708 5.5 209.125 6.625C209.583 7.70833 209.979 8.6875 210.312 9.5625C210.729 10.6042 211.146 11.5833 211.562 12.5C211.979 13.4167 212.479 14.5208 213.062 15.8125C213.562 16.8958 214.167 18.2292 214.875 19.8125C215.583 21.3542 216.417 23.125 217.375 25.125C217.833 23.8333 218.25 22.6458 218.625 21.5625C219.042 20.4792 219.396 19.5417 219.688 18.75C220.021 17.8333 220.292 17 220.5 16.25C220.708 15.5 220.938 14.5833 221.188 13.5C221.396 12.5833 221.625 11.4792 221.875 10.1875C222.167 8.89583 222.458 7.39583 222.75 5.6875C223.958 5.6875 225.042 5.6875 226 5.6875C226.958 5.6875 227.792 5.66667 228.5 5.625C229.292 5.625 230 5.60417 230.625 5.5625C231.292 5.5625 232.188 5.52083 233.312 5.4375C234.271 5.35417 235.542 5.29167 237.125 5.25C238.75 5.16667 240.75 5.0625 243.125 4.9375C242.25 5.5625 241.542 6.1875 241 6.8125C240.5 7.39583 240.104 7.91667 239.812 8.375C239.479 8.91667 239.271 9.4375 239.188 9.9375C239.104 10.3542 239.021 11.3125 238.938 12.8125C238.896 14.3125 238.833 16.1042 238.75 18.1875C238.708 20.2292 238.667 22.4167 238.625 24.75C238.625 27.0833 238.646 29.2917 238.688 31.375C238.729 33.4583 238.792 35.2708 238.875 36.8125C239 38.3125 239.167 39.2708 239.375 39.6875C239.667 40.1875 240.062 40.7708 240.562 41.4375C241.021 42.0208 241.604 42.6875 242.312 43.4375C243.062 44.1875 244.042 45.0208 245.25 45.9375C243.333 46.0208 241.729 46.0833 240.438 46.125C239.188 46.1667 238.146 46.2083 237.312 46.25C236.354 46.2917 235.583 46.3125 235 46.3125C234.375 46.3125 233.521 46.3333 232.438 46.375C231.479 46.4167 230.208 46.4792 228.625 46.5625C227.042 46.6042 225 46.6875 222.5 46.8125C223.083 46.1458 223.625 45.4792 224.125 44.8125C224.625 44.1458 225.042 43.5417 225.375 43C225.792 42.375 226.146 41.7708 226.438 41.1875C226.729 40.3958 226.958 38.9583 227.125 36.875C227.292 35.0833 227.417 32.5208 227.5 29.1875C227.583 25.8125 227.583 21.2917 227.5 15.625C226.708 16.9167 226 18.2083 225.375 19.5C224.792 20.75 224.271 21.8958 223.812 22.9375C223.312 24.1458 222.854 25.3125 222.438 26.4375C222.021 27.6042 221.583 28.8958 221.125 30.3125C220.708 31.5208 220.208 32.9583 219.625 34.625C219.083 36.2917 218.458 38.125 217.75 40.125L215.375 40.25C215.042 38.5833 214.708 37.0833 214.375 35.75C214.042 34.375 213.708 33.2083 213.375 32.25C213 31.125 212.625 30.125 212.25 29.25C211.833 28.375 211.375 27.3958 210.875 26.3125C210.417 25.3958 209.854 24.3125 209.188 23.0625C208.562 21.8125 207.833 20.4167 207 18.875C206.583 23.125 206.333 26.5833 206.25 29.25C206.167 31.875 206.167 33.9167 206.25 35.375C206.333 37.125 206.458 38.3958 206.625 39.1875C206.875 39.8958 207.271 40.6875 207.812 41.5625C208.271 42.3125 208.896 43.2083 209.688 44.25C210.521 45.25 211.583 46.375 212.875 47.625C211.958 47.625 211 47.625 210 47.625C209 47.625 208.083 47.6458 207.25 47.6875C206.25 47.7292 205.271 47.75 204.312 47.75C203.312 47.7917 202.146 47.8542 200.812 47.9375C199.646 48.0208 198.25 48.1042 196.625 48.1875C195 48.2708 193.125 48.4167 191 48.625C191.917 48.0417 192.667 47.4792 193.25 46.9375C193.833 46.3542 194.292 45.8333 194.625 45.375C195.042 44.8333 195.354 44.2917 195.562 43.75C195.688 43.4167 195.792 42.6875 195.875 41.5625C196 40.4375 196.104 39.0625 196.188 37.4375C196.312 35.8125 196.396 34 196.438 32C196.521 30 196.583 27.9792 196.625 25.9375C196.708 23.8542 196.771 21.8333 196.812 19.875C196.854 17.875 196.875 16.0833 196.875 14.5C196.917 12.875 196.938 11.5208 196.938 10.4375C196.938 9.35417 196.938 8.66667 196.938 8.375C196.812 7.75 196.625 7.125 196.375 6.5C196.167 5.95833 195.833 5.39583 195.375 4.8125C194.917 4.22917 194.312 3.6875 193.562 3.1875ZM249.312 22.6875C249.521 22.4375 249.646 21.9792 249.688 21.3125C249.771 20.6042 249.938 19.8125 250.188 18.9375C250.479 18.0625 250.958 17.1458 251.625 16.1875C252.292 15.2292 253.375 14.3333 254.875 13.5C256.333 12.6667 257.75 12.1667 259.125 12C260.5 11.8333 261.812 11.8958 263.062 12.1875C264.312 12.4792 265.479 12.9375 266.562 13.5625C267.688 14.1875 268.708 14.875 269.625 15.625C270.25 16.125 270.75 16.8542 271.125 17.8125C271.5 18.7292 271.792 19.7708 272 20.9375C272.208 22.1042 272.354 23.3333 272.438 24.625C272.562 25.875 272.646 27.1042 272.688 28.3125C272.729 29.4792 272.75 30.5625 272.75 31.5625C272.792 32.5208 272.875 33.3125 273 33.9375C273.167 34.8542 273.458 35.6458 273.875 36.3125C274.292 36.9375 274.75 37.4792 275.25 37.9375C275.75 38.3542 276.25 38.6875 276.75 38.9375C277.25 39.1875 277.688 39.375 278.062 39.5C278.312 39.625 278.542 39.7083 278.75 39.75C279.167 39.9167 279.458 39.9167 279.625 39.75C279.375 40.3333 279.146 40.8333 278.938 41.25C278.729 41.6667 278.562 42.0208 278.438 42.3125C278.271 42.6458 278.125 42.9167 278 43.125C277.875 43.375 277.729 43.6042 277.562 43.8125C277.438 44.0208 277.271 44.25 277.062 44.5C276.854 44.75 276.646 45.0208 276.438 45.3125C275.896 45.1042 275.375 44.8542 274.875 44.5625C274.417 44.2708 274 44 273.625 43.75C273.167 43.4583 272.75 43.1667 272.375 42.875C272 42.5833 271.646 42.25 271.312 41.875C271.021 41.5417 270.708 41.1875 270.375 40.8125C270.083 40.4375 269.833 40.0208 269.625 39.5625C269.375 40.1042 268.771 40.875 267.812 41.875C266.896 42.875 265.688 43.7917 264.188 44.625C262.688 45.4167 260.938 45.9792 258.938 46.3125C256.979 46.6458 254.812 46.4167 252.438 45.625C251.396 45.2917 250.417 44.8125 249.5 44.1875C248.583 43.5208 247.792 42.7292 247.125 41.8125C246.5 40.8958 246.042 39.8542 245.75 38.6875C245.5 37.4792 245.521 36.1458 245.812 34.6875C246.104 33.2292 246.625 32 247.375 31C248.125 30 249.021 29.1875 250.062 28.5625C251.104 27.9375 252.271 27.4583 253.562 27.125C254.854 26.7917 256.188 26.5625 257.562 26.4375C258.646 26.3958 259.729 26.4583 260.812 26.625C261.729 26.7917 262.688 27.1042 263.688 27.5625C264.688 27.9792 265.542 28.625 266.25 29.5C266.208 27.2917 266.125 25.5417 266 24.25C265.917 22.9167 265.833 21.8958 265.75 21.1875C265.583 20.3542 265.438 19.7708 265.312 19.4375C265.104 19.1458 264.875 18.8125 264.625 18.4375C264.417 18.0625 264.146 17.7292 263.812 17.4375C263.479 17.1042 263.062 16.8333 262.562 16.625C262.062 16.4167 261.479 16.3333 260.812 16.375C260.104 16.4167 259.542 16.6042 259.125 16.9375C258.708 17.2708 258.375 17.6667 258.125 18.125C257.917 18.5417 257.792 19 257.75 19.5C257.708 20 257.729 20.4375 257.812 20.8125C257.896 21.0625 258.021 21.3333 258.188 21.625C258.354 21.875 258.583 22.1458 258.875 22.4375C259.167 22.7292 259.562 22.9792 260.062 23.1875C259.104 23.3125 258.25 23.4167 257.5 23.5C256.75 23.5417 256.104 23.6042 255.562 23.6875C254.938 23.7708 254.396 23.8333 253.938 23.875C253.479 23.9167 252.938 24 252.312 24.125C251.771 24.2083 251.104 24.3125 250.312 24.4375C249.521 24.5625 248.604 24.7292 247.562 24.9375C247.812 24.6458 248.042 24.375 248.25 24.125C248.458 23.8333 248.646 23.5833 248.812 23.375C248.979 23.125 249.146 22.8958 249.312 22.6875ZM258.688 30.125C257.938 30.1667 257.188 30.3542 256.438 30.6875C255.688 30.9792 255.021 31.4167 254.438 32C253.854 32.5417 253.354 33.1875 252.938 33.9375C252.562 34.6458 252.375 35.4375 252.375 36.3125C252.375 37.1875 252.583 37.9583 253 38.625C253.458 39.25 254.042 39.7708 254.75 40.1875C255.5 40.6042 256.292 40.8542 257.125 40.9375C258 41.0208 258.854 40.9375 259.688 40.6875C260.479 40.3958 261.229 39.9375 261.938 39.3125C262.646 38.6458 263.25 37.9375 263.75 37.1875C264.25 36.3958 264.604 35.625 264.812 34.875C265.021 34.0833 265.042 33.4375 264.875 32.9375C264.542 31.8542 263.792 31.1042 262.625 30.6875C261.458 30.2292 260.146 30.0417 258.688 30.125ZM306.562 12.3125C306.188 13.2292 305.854 14.0625 305.562 14.8125C305.312 15.5625 305.083 16.2292 304.875 16.8125C304.667 17.4792 304.479 18.0625 304.312 18.5625C304.146 19.1458 303.958 19.8125 303.75 20.5625C303.542 21.2292 303.271 22.0625 302.938 23.0625C302.646 24.0208 302.292 25.1667 301.875 26.5C301.542 24.5 300.938 22.9167 300.062 21.75C299.188 20.5417 298.292 19.6042 297.375 18.9375C296.292 18.1875 295.125 17.6458 293.875 17.3125C291.625 16.9375 290 16.9792 289 17.4375C288 17.8958 287.333 18.4792 287 19.1875C286.833 19.4792 286.646 19.8542 286.438 20.3125C286.271 20.7292 286.125 21.1667 286 21.625C285.917 22.0833 285.896 22.5417 285.938 23C285.979 23.4583 286.167 23.8333 286.5 24.125C286.708 24.3333 287.25 24.625 288.125 25C289 25.3333 290.042 25.7292 291.25 26.1875C292.5 26.6042 293.812 27.0625 295.188 27.5625C296.604 28.0625 297.938 28.5625 299.188 29.0625C300.438 29.5625 301.521 30.0625 302.438 30.5625C303.354 31.0625 303.958 31.5208 304.25 31.9375C304.5 32.3542 304.771 32.9167 305.062 33.625C305.396 34.2917 305.625 35.0417 305.75 35.875C305.917 36.6667 305.958 37.5 305.875 38.375C305.833 39.2083 305.604 40.0417 305.188 40.875C304.771 41.7083 304.104 42.4792 303.188 43.1875C302.312 43.8958 301.125 44.4792 299.625 44.9375C297.875 45.4792 296.188 45.625 294.562 45.375C292.938 45.125 291.438 44.75 290.062 44.25C288.729 43.75 287.562 43.2708 286.562 42.8125C285.562 42.3125 284.854 42.1042 284.438 42.1875C283.979 42.2708 283.458 42.5 282.875 42.875C282.292 43.25 281.729 43.6458 281.188 44.0625C280.688 44.4375 280.25 44.7917 279.875 45.125C279.5 45.4167 279.312 45.5208 279.312 45.4375C279.312 45.3542 279.375 45.1042 279.5 44.6875C279.667 44.2708 279.833 43.7708 280 43.1875C280.208 42.5625 280.396 41.8958 280.562 41.1875C280.771 40.4375 280.917 39.7292 281 39.0625C281.083 38.5208 281.188 37.8542 281.312 37.0625C281.396 36.3542 281.5 35.5 281.625 34.5C281.792 33.4583 281.979 32.2083 282.188 30.75C282.396 31.8333 282.688 32.7708 283.062 33.5625C283.479 34.3542 283.875 35.0417 284.25 35.625C284.708 36.2917 285.146 36.8542 285.562 37.3125C286.188 37.8958 286.917 38.4375 287.75 38.9375C288.625 39.4375 289.5 39.875 290.375 40.25C291.25 40.5833 292.083 40.7917 292.875 40.875C293.667 40.9583 294.333 40.875 294.875 40.625C295.417 40.375 295.875 39.9167 296.25 39.25C296.667 38.5833 296.958 37.8542 297.125 37.0625C297.292 36.2708 297.354 35.5208 297.312 34.8125C297.271 34.0625 297.083 33.4583 296.75 33C296.5 32.7083 295.917 32.3333 295 31.875C294.125 31.4167 293.062 30.9167 291.812 30.375C290.604 29.8333 289.312 29.2708 287.938 28.6875C286.604 28.1042 285.333 27.5208 284.125 26.9375C282.958 26.3125 281.979 25.7292 281.188 25.1875C280.438 24.6042 280.021 24.0833 279.938 23.625C279.854 22.9583 279.792 22.2292 279.75 21.4375C279.708 20.6042 279.75 19.7917 279.875 19C280.042 18.1667 280.333 17.375 280.75 16.625C281.208 15.875 281.875 15.25 282.75 14.75C283.333 14.4167 284.104 14.1667 285.062 14C286.021 13.8333 287.083 13.75 288.25 13.75C289.417 13.7083 290.625 13.75 291.875 13.875C293.125 13.9583 294.312 14.0833 295.438 14.25C296.604 14.375 297.646 14.5417 298.562 14.75C299.521 14.9583 300.25 15.1458 300.75 15.3125C301.333 15.5208 301.958 15.5417 302.625 15.375C303.208 15.25 303.833 14.9792 304.5 14.5625C305.167 14.1458 305.854 13.3958 306.562 12.3125ZM313.5 22.6875C313.708 22.4375 313.833 21.9792 313.875 21.3125C313.958 20.6042 314.125 19.8125 314.375 18.9375C314.667 18.0625 315.146 17.1458 315.812 16.1875C316.479 15.2292 317.562 14.3333 319.062 13.5C320.521 12.6667 321.938 12.1667 323.312 12C324.688 11.8333 326 11.8958 327.25 12.1875C328.5 12.4792 329.667 12.9375 330.75 13.5625C331.875 14.1875 332.896 14.875 333.812 15.625C334.438 16.125 334.938 16.8542 335.312 17.8125C335.688 18.7292 335.979 19.7708 336.188 20.9375C336.396 22.1042 336.542 23.3333 336.625 24.625C336.75 25.875 336.833 27.1042 336.875 28.3125C336.917 29.4792 336.938 30.5625 336.938 31.5625C336.979 32.5208 337.062 33.3125 337.188 33.9375C337.354 34.8542 337.646 35.6458 338.062 36.3125C338.479 36.9375 338.938 37.4792 339.438 37.9375C339.938 38.3542 340.438 38.6875 340.938 38.9375C341.438 39.1875 341.875 39.375 342.25 39.5C342.5 39.625 342.729 39.7083 342.938 39.75C343.354 39.9167 343.646 39.9167 343.812 39.75C343.562 40.3333 343.333 40.8333 343.125 41.25C342.917 41.6667 342.75 42.0208 342.625 42.3125C342.458 42.6458 342.312 42.9167 342.188 43.125C342.062 43.375 341.917 43.6042 341.75 43.8125C341.625 44.0208 341.458 44.25 341.25 44.5C341.042 44.75 340.833 45.0208 340.625 45.3125C340.083 45.1042 339.562 44.8542 339.062 44.5625C338.604 44.2708 338.188 44 337.812 43.75C337.354 43.4583 336.938 43.1667 336.562 42.875C336.188 42.5833 335.833 42.25 335.5 41.875C335.208 41.5417 334.896 41.1875 334.562 40.8125C334.271 40.4375 334.021 40.0208 333.812 39.5625C333.562 40.1042 332.958 40.875 332 41.875C331.083 42.875 329.875 43.7917 328.375 44.625C326.875 45.4167 325.125 45.9792 323.125 46.3125C321.167 46.6458 319 46.4167 316.625 45.625C315.583 45.2917 314.604 44.8125 313.688 44.1875C312.771 43.5208 311.979 42.7292 311.312 41.8125C310.688 40.8958 310.229 39.8542 309.938 38.6875C309.688 37.4792 309.708 36.1458 310 34.6875C310.292 33.2292 310.812 32 311.562 31C312.312 30 313.208 29.1875 314.25 28.5625C315.292 27.9375 316.458 27.4583 317.75 27.125C319.042 26.7917 320.375 26.5625 321.75 26.4375C322.833 26.3958 323.917 26.4583 325 26.625C325.917 26.7917 326.875 27.1042 327.875 27.5625C328.875 27.9792 329.729 28.625 330.438 29.5C330.396 27.2917 330.312 25.5417 330.188 24.25C330.104 22.9167 330.021 21.8958 329.938 21.1875C329.771 20.3542 329.625 19.7708 329.5 19.4375C329.292 19.1458 329.062 18.8125 328.812 18.4375C328.604 18.0625 328.333 17.7292 328 17.4375C327.667 17.1042 327.25 16.8333 326.75 16.625C326.25 16.4167 325.667 16.3333 325 16.375C324.292 16.4167 323.729 16.6042 323.312 16.9375C322.896 17.2708 322.562 17.6667 322.312 18.125C322.104 18.5417 321.979 19 321.938 19.5C321.896 20 321.917 20.4375 322 20.8125C322.083 21.0625 322.208 21.3333 322.375 21.625C322.542 21.875 322.771 22.1458 323.062 22.4375C323.354 22.7292 323.75 22.9792 324.25 23.1875C323.292 23.3125 322.438 23.4167 321.688 23.5C320.938 23.5417 320.292 23.6042 319.75 23.6875C319.125 23.7708 318.583 23.8333 318.125 23.875C317.667 23.9167 317.125 24 316.5 24.125C315.958 24.2083 315.292 24.3125 314.5 24.4375C313.708 24.5625 312.792 24.7292 311.75 24.9375C312 24.6458 312.229 24.375 312.438 24.125C312.646 23.8333 312.833 23.5833 313 23.375C313.167 23.125 313.333 22.8958 313.5 22.6875ZM322.875 30.125C322.125 30.1667 321.375 30.3542 320.625 30.6875C319.875 30.9792 319.208 31.4167 318.625 32C318.042 32.5417 317.542 33.1875 317.125 33.9375C316.75 34.6458 316.562 35.4375 316.562 36.3125C316.562 37.1875 316.771 37.9583 317.188 38.625C317.646 39.25 318.229 39.7708 318.938 40.1875C319.688 40.6042 320.479 40.8542 321.312 40.9375C322.188 41.0208 323.042 40.9375 323.875 40.6875C324.667 40.3958 325.417 39.9375 326.125 39.3125C326.833 38.6458 327.438 37.9375 327.938 37.1875C328.438 36.3958 328.792 35.625 329 34.875C329.208 34.0833 329.229 33.4375 329.062 32.9375C328.729 31.8542 327.979 31.1042 326.812 30.6875C325.646 30.2292 324.333 30.0417 322.875 30.125ZM344.625 49.75C345.042 49.125 345.375 48.5417 345.625 48C345.875 47.4583 346.083 47 346.25 46.625C346.417 46.1667 346.542 45.75 346.625 45.375C346.667 45.125 346.688 44.3958 346.688 43.1875C346.688 41.9792 346.646 40.4583 346.562 38.625C346.521 36.7917 346.458 34.7292 346.375 32.4375C346.333 30.1458 346.25 27.8125 346.125 25.4375C346.042 23.0625 345.938 20.75 345.812 18.5C345.729 16.25 345.646 14.2292 345.562 12.4375C345.479 10.6042 345.396 9.10417 345.312 7.9375C345.229 6.77083 345.167 6.10417 345.125 5.9375C345.042 5.6875 344.896 5.4375 344.688 5.1875C344.271 4.6875 343.562 4.20833 342.562 3.75C344.688 3.20833 346.312 2.77083 347.438 2.4375C348.104 2.27083 348.688 2.10417 349.188 1.9375C349.646 1.77083 350.104 1.60417 350.562 1.4375C350.938 1.27083 351.354 1.08333 351.812 0.875C352.271 0.625 352.688 0.354167 353.062 0.0625C352.854 1.27083 352.688 2.4375 352.562 3.5625C352.438 4.6875 352.333 5.72917 352.25 6.6875C352.167 7.77083 352.125 8.8125 352.125 9.8125C351.917 11.8542 351.792 14.0833 351.75 16.5C351.75 18.875 351.771 21.2917 351.812 23.75C351.854 26.2083 351.938 28.6042 352.062 30.9375C352.188 33.2708 352.312 35.3958 352.438 37.3125C352.604 39.1875 352.75 40.7917 352.875 42.125C353.042 43.4167 353.167 44.25 353.25 44.625C353.417 45.25 353.583 45.8542 353.75 46.4375C353.917 46.9375 354.104 47.4583 354.312 48C354.521 48.5833 354.771 49.0417 355.062 49.375H349C348.458 49.375 347.938 49.3958 347.438 49.4375C346.979 49.4792 346.5 49.5208 346 49.5625C345.5 49.6042 345.042 49.6667 344.625 49.75ZM362 22.6875C362.208 22.4375 362.333 21.9792 362.375 21.3125C362.458 20.6042 362.625 19.8125 362.875 18.9375C363.167 18.0625 363.646 17.1458 364.312 16.1875C364.979 15.2292 366.062 14.3333 367.562 13.5C369.021 12.6667 370.438 12.1667 371.812 12C373.188 11.8333 374.5 11.8958 375.75 12.1875C377 12.4792 378.167 12.9375 379.25 13.5625C380.375 14.1875 381.396 14.875 382.312 15.625C382.938 16.125 383.438 16.8542 383.812 17.8125C384.188 18.7292 384.479 19.7708 384.688 20.9375C384.896 22.1042 385.042 23.3333 385.125 24.625C385.25 25.875 385.333 27.1042 385.375 28.3125C385.417 29.4792 385.438 30.5625 385.438 31.5625C385.479 32.5208 385.562 33.3125 385.688 33.9375C385.854 34.8542 386.146 35.6458 386.562 36.3125C386.979 36.9375 387.438 37.4792 387.938 37.9375C388.438 38.3542 388.938 38.6875 389.438 38.9375C389.938 39.1875 390.375 39.375 390.75 39.5C391 39.625 391.229 39.7083 391.438 39.75C391.854 39.9167 392.146 39.9167 392.312 39.75C392.062 40.3333 391.833 40.8333 391.625 41.25C391.417 41.6667 391.25 42.0208 391.125 42.3125C390.958 42.6458 390.812 42.9167 390.688 43.125C390.562 43.375 390.417 43.6042 390.25 43.8125C390.125 44.0208 389.958 44.25 389.75 44.5C389.542 44.75 389.333 45.0208 389.125 45.3125C388.583 45.1042 388.062 44.8542 387.562 44.5625C387.104 44.2708 386.688 44 386.312 43.75C385.854 43.4583 385.438 43.1667 385.062 42.875C384.688 42.5833 384.333 42.25 384 41.875C383.708 41.5417 383.396 41.1875 383.062 40.8125C382.771 40.4375 382.521 40.0208 382.312 39.5625C382.062 40.1042 381.458 40.875 380.5 41.875C379.583 42.875 378.375 43.7917 376.875 44.625C375.375 45.4167 373.625 45.9792 371.625 46.3125C369.667 46.6458 367.5 46.4167 365.125 45.625C364.083 45.2917 363.104 44.8125 362.188 44.1875C361.271 43.5208 360.479 42.7292 359.812 41.8125C359.188 40.8958 358.729 39.8542 358.438 38.6875C358.188 37.4792 358.208 36.1458 358.5 34.6875C358.792 33.2292 359.312 32 360.062 31C360.812 30 361.708 29.1875 362.75 28.5625C363.792 27.9375 364.958 27.4583 366.25 27.125C367.542 26.7917 368.875 26.5625 370.25 26.4375C371.333 26.3958 372.417 26.4583 373.5 26.625C374.417 26.7917 375.375 27.1042 376.375 27.5625C377.375 27.9792 378.229 28.625 378.938 29.5C378.896 27.2917 378.812 25.5417 378.688 24.25C378.604 22.9167 378.521 21.8958 378.438 21.1875C378.271 20.3542 378.125 19.7708 378 19.4375C377.792 19.1458 377.562 18.8125 377.312 18.4375C377.104 18.0625 376.833 17.7292 376.5 17.4375C376.167 17.1042 375.75 16.8333 375.25 16.625C374.75 16.4167 374.167 16.3333 373.5 16.375C372.792 16.4167 372.229 16.6042 371.812 16.9375C371.396 17.2708 371.062 17.6667 370.812 18.125C370.604 18.5417 370.479 19 370.438 19.5C370.396 20 370.417 20.4375 370.5 20.8125C370.583 21.0625 370.708 21.3333 370.875 21.625C371.042 21.875 371.271 22.1458 371.562 22.4375C371.854 22.7292 372.25 22.9792 372.75 23.1875C371.792 23.3125 370.938 23.4167 370.188 23.5C369.438 23.5417 368.792 23.6042 368.25 23.6875C367.625 23.7708 367.083 23.8333 366.625 23.875C366.167 23.9167 365.625 24 365 24.125C364.458 24.2083 363.792 24.3125 363 24.4375C362.208 24.5625 361.292 24.7292 360.25 24.9375C360.5 24.6458 360.729 24.375 360.938 24.125C361.146 23.8333 361.333 23.5833 361.5 23.375C361.667 23.125 361.833 22.8958 362 22.6875ZM371.375 30.125C370.625 30.1667 369.875 30.3542 369.125 30.6875C368.375 30.9792 367.708 31.4167 367.125 32C366.542 32.5417 366.042 33.1875 365.625 33.9375C365.25 34.6458 365.062 35.4375 365.062 36.3125C365.062 37.1875 365.271 37.9583 365.688 38.625C366.146 39.25 366.729 39.7708 367.438 40.1875C368.188 40.6042 368.979 40.8542 369.812 40.9375C370.688 41.0208 371.542 40.9375 372.375 40.6875C373.167 40.3958 373.917 39.9375 374.625 39.3125C375.333 38.6458 375.938 37.9375 376.438 37.1875C376.938 36.3958 377.292 35.625 377.5 34.875C377.708 34.0833 377.729 33.4375 377.562 32.9375C377.229 31.8542 376.479 31.1042 375.312 30.6875C374.146 30.2292 372.833 30.0417 371.375 30.125Z" fill="#FF0000"/>
</svg>
